<?xml version="1.0" encoding="UTF-8"?>
<svg id="Layer_2" data-name="Layer 2" xmlns="http://www.w3.org/2000/svg" viewBox="0 0 276.04 277.41">
  <defs>
    <style>
      .cls-1 {
        fill: #dcdde0;
        stroke-width: 0px;
      }
    </style>
  </defs>
  <g id="Layer_1-2" data-name="Layer 1">
    <g>
      <circle class="cls-1" cx="4.39" cy="4.39" r="4.39"/>
      <circle class="cls-1" cx="57.83" cy="4.39" r="4.39"/>
      <circle class="cls-1" cx="111.26" cy="4.39" r="4.39"/>
      <circle class="cls-1" cx="164.7" cy="4.39" r="4.39"/>
      <circle class="cls-1" cx="218.14" cy="4.39" r="4.39"/>
      <circle class="cls-1" cx="271.57" cy="4.39" r="4.39"/>
      <circle class="cls-1" cx="4.39" cy="58.12" r="4.39"/>
      <circle class="cls-1" cx="57.83" cy="58.12" r="4.39"/>
      <circle class="cls-1" cx="111.26" cy="58.12" r="4.39"/>
      <circle class="cls-1" cx="164.7" cy="58.12" r="4.39"/>
      <circle class="cls-1" cx="218.14" cy="58.12" r="4.39"/>
      <circle class="cls-1" cx="271.57" cy="58.12" r="4.39"/>
      <circle class="cls-1" cx="4.39" cy="111.84" r="4.39"/>
      <circle class="cls-1" cx="57.83" cy="111.84" r="4.39"/>
      <circle class="cls-1" cx="111.26" cy="111.84" r="4.39"/>
      <circle class="cls-1" cx="164.7" cy="111.84" r="4.39"/>
      <circle class="cls-1" cx="218.14" cy="111.84" r="4.39"/>
      <circle class="cls-1" cx="271.57" cy="111.84" r="4.39"/>
      <circle class="cls-1" cx="4.39" cy="165.56" r="4.39"/>
      <circle class="cls-1" cx="57.83" cy="165.56" r="4.39"/>
      <circle class="cls-1" cx="111.26" cy="165.56" r="4.39"/>
      <circle class="cls-1" cx="164.7" cy="165.56" r="4.39"/>
      <circle class="cls-1" cx="218.14" cy="165.56" r="4.39"/>
      <circle class="cls-1" cx="271.57" cy="165.56" r="4.39"/>
      <circle class="cls-1" cx="4.39" cy="219.29" r="4.39"/>
      <circle class="cls-1" cx="57.83" cy="219.29" r="4.39"/>
      <circle class="cls-1" cx="111.26" cy="219.29" r="4.39"/>
      <circle class="cls-1" cx="164.7" cy="219.29" r="4.39"/>
      <circle class="cls-1" cx="218.14" cy="219.29" r="4.39"/>
      <circle class="cls-1" cx="271.57" cy="219.29" r="4.39"/>
      <circle class="cls-1" cx="4.47" cy="273.01" r="4.39"/>
      <circle class="cls-1" cx="57.9" cy="273.01" r="4.39"/>
      <circle class="cls-1" cx="111.34" cy="273.01" r="4.39"/>
      <circle class="cls-1" cx="164.77" cy="273.01" r="4.39"/>
      <circle class="cls-1" cx="218.21" cy="273.01" r="4.39"/>
      <circle class="cls-1" cx="271.64" cy="273.01" r="4.39"/>
    </g>
  </g>
</svg>